<?xml version="1.0" encoding="UTF-8"?>
<!DOCTYPE svg PUBLIC "-//W3C//DTD SVG 1.1//EN" "http://www.w3.org/Graphics/SVG/1.1/DTD/svg11.dtd">
<!-- Creator: CorelDRAW 2021 (64 Bit Versão de avaliação) -->
<svg xmlns="http://www.w3.org/2000/svg" xml:space="preserve" width="663.42mm" height="128.733mm" version="1.1" style="shape-rendering:geometricPrecision; text-rendering:geometricPrecision; image-rendering:optimizeQuality; fill-rule:evenodd; clip-rule:evenodd"
viewBox="0 0 157734.28 30607.57"
 xmlns:xlink="http://www.w3.org/1999/xlink"
 xmlns:xodm="http://www.corel.com/coreldraw/odm/2003">
 <defs>
  <style type="text/css">
   <![CDATA[
    .fil0 {fill:#47A6F6}
    .fil1 {fill:#FDFDFD}
   ]]>
  </style>
 </defs>
 <g id="Camada_x0020_1">
  <metadata id="CorelCorpID_0Corel-Layer"/>
  <g id="_2100974740816">
   <path class="fil0" d="M15213.7 10958.9c39.71,-10.2 238.43,-18.31 412.39,-106.49 186.76,-94.7 310.11,-215.12 557.26,-332.44 1320.42,-626.88 2777.53,496.2 3297.51,1423.99 -618.96,1472.8 -2291.12,2637.56 -4041.29,688.77 -628.99,-700.39 -418.77,-298.51 -225.87,-1673.83zm-11027.16 8035.89c-379.11,-111.77 -320.86,8.8 -358.99,-634.25 -228.77,-3855.51 1359.08,-7566.74 4314.21,-9970.18 3601.63,-2929.2 10139.15,-3793.88 13981.3,22.85l2116.96 2689.34c139.61,211.99 258.09,354.69 411.3,570.86 1936.45,2731.31 3687.69,7035.11 2222.22,10150.73 -930.3,1977.8 -2361.71,2511.38 -5151.53,2240.12 64.41,-302.93 230.15,-284.91 566.94,-542.88 964.73,-739 979.45,-2005.07 508.52,-2358.1 -232.48,-174.28 -612.42,47.05 -794.62,100.29 -2416.54,706.07 -4165.52,-1151.21 -5010.4,-1574.49 -933.89,698.94 -810,2479.4 -737.89,3706.69 12.43,211.68 54.95,553.19 50.05,746.37 -4.59,182.74 1.76,166.03 -39.3,341.4 -75.94,324.52 29.05,75.35 -134.79,284.55 -336.41,-144.7 -224.02,43.51 -343.25,-532.79 -251.38,-1214.74 -282.74,-3444.99 435.91,-4444.27 276.06,-383.84 534.84,-381.82 476.66,-893.88 -57.87,-509.54 -221.12,-615.89 -181.2,-1285.35 91.42,-1532.64 1368.42,-2676.96 2568.87,-3324.9 1356.8,-732.28 786.18,-57.75 1440.54,-1521.45 625.52,-1399.17 -1248.43,-2901.66 -2198.47,-3389.85 -3076.42,-1580.91 -6434.91,-611.35 -7058.96,3529.56 -955.75,6341.97 3232.55,8579.69 1396.48,9274.52 -252.79,-557.38 206.38,-392.42 -337.4,-1384.64 -853.84,-1558.01 -1298.59,-2183.37 -1589.28,-4201.04 -341.14,-2368.11 -204.92,-4675.16 918.46,-6412.46 2091.57,-3234.53 7406.75,-2406.01 9212.65,1090.82l307.47 526.07c1883.67,-1588.45 2299.37,-978.24 1312.6,-2273.74 -3623.98,-4757.73 -12252.17,-4092.65 -16240.58,1777.11 -2269.39,3339.92 -1688.92,5893.39 -1961.04,7398.19 -6.02,33.14 -22.35,76.58 -28.25,102.71 -5.71,25.44 -30.88,114.1 -35.64,97.41 -4.71,-16.5 -22.37,65.07 -39.56,94.68zm-4186.54 -5194.21l0 2710.43c213.72,477.3 290.23,1773.02 439,2374.07 513.25,2073.55 1475.06,4061.21 2723.58,5657.86 4506.42,5762.93 9715.92,6051.17 16415.69,6049.67 1627.08,-0.33 10142.77,72.61 11036.38,-100.93 65.29,-3745.19 47.05,-7534.07 43.34,-11282.85 -3.64,-3705.31 43.72,-6807.64 -1253.8,-9954.18 -1976.4,-4792.8 -5939.25,-7775.25 -10814.13,-8876.7 -715.09,-161.53 -1702.31,-124.13 -2329.49,-377.97l-2440.58 0c-919.39,471.9 -2625.55,200.36 -5389.1,1532.53 -7771.95,3746.49 -8046.68,11502.42 -8430.9,12268.05z"/>
   <path class="fil0" d="M41151.96 12053.35l8071.57 -19.28 -5.18 -3283.48 -12884.08 12.46 39.99 17309.86 4765.22 -12.65 35.43 -7416.36c1705.54,-161.27 6169.59,248.46 7403.28,-107.04l-21.8 -3212.27 -7415.26 -51.69 10.84 -3219.55z"/>
   <path class="fil0" d="M83285.01 19636.38l-22.18 2762.81c-753.77,426.68 -1334.66,859.33 -2489.06,838.15 -943.55,-17.29 -1872.59,-255.4 -1975.92,-1321.09 -117.69,-1214.24 453.53,-1602.31 1426.72,-1899.93 950.56,-290.76 2025.33,-374.8 3060.44,-379.94zm-7845.01 -3592.42c514.3,70.19 1465.41,-350.6 2024.97,-510.56 1841.4,-526.3 6133.81,-827.69 5769.61,1582.15 -1661.89,386.72 -3289.88,-16.88 -6189.71,952.01 -5418.18,1810.35 -2616.54,9959.6 3851.49,7660.23 1624.56,-577.52 1677.99,-1053.23 2378.02,-1270.66l7.99 1257.01 4484.19 -13.65c114.84,-2104.05 16.71,-4480.88 16.81,-6614.77 0.07,-2224.86 153.66,-4113.93 -1279.81,-5356.62 -1988.1,-1723.52 -8312.16,-1856.4 -11092.02,-745.83l28.46 3060.7z"/>
   <path class="fil0" d="M59448.8 22310.31c-1051.61,918.7 -4294.39,1720.07 -4491.84,-418.29 -110.15,-1192.84 501.96,-1609.99 1493.84,-1891.16 787.08,-223.16 2137.1,-402.67 3014.91,-339.5l-16.9 2648.95zm-7815.51 -6228.77c581.23,-2.4 1511.46,-420.31 2152.67,-586.77 1964.68,-510.07 6251.22,-623.21 5600.78,1663.55 -2178.04,186.66 -4407.27,207.73 -6297.1,960.95 -1660.61,661.87 -2984.4,1915.44 -2682.07,4359.2 244.89,1979.2 1763.94,3278.92 3697.18,3540.05 3086.14,416.84 4304.97,-1104.3 5341.45,-1606.04l33.38 1303.52 4432.74 -8.65c207.45,-1803.9 36,-4700.31 36.33,-6621.65 0.4,-2263.49 171.5,-4112.93 -1246.45,-5319.27 -2454.77,-2088.45 -7789.5,-1571.87 -11121.19,-829.19l52.28 3144.3z"/>
   <path class="fil0" d="M100033.58 17497.61l-5442.69 12.01c172.9,-1635.86 1007.08,-2568.04 2680.43,-2632.78 1812.94,-70.16 2734.47,791.62 2762.26,2620.77zm4239.87 4184.92c-1125.93,-167.48 -2131.75,1602.71 -5764.74,1429.91 -2221.67,-105.66 -3726.45,-967.75 -3896.11,-3148.72l9884.46 -51.86c153.14,-4281.76 -998.64,-7412.53 -5987.28,-7634.38 -7833.84,-348.36 -9581.65,5807.65 -7894.56,9892.17 1961.87,4749.77 10221.25,4486.73 13639.92,2789.2l18.31 -3276.32z"/>
   <path class="fil0" d="M67310.19 26064.44l4503.83 4.92 -5.18 -18105.94c-911.38,-3.21 -3843.83,-125.89 -4515.22,98.65l16.57 18002.38z"/>
   <path class="fil1" d="M22362.81 20513.59c-1867.12,819.13 -4704.16,-313.44 -5198.51,-1849.74 -699.99,-2175.45 1651.76,-4004.84 2907.42,-4275.67 4.4,3229.15 1475.56,4493.94 2291.1,6125.42zm446.49 3205.28c1343.98,-1774.04 878.71,-2378.92 -254.55,-4042.22 -1114.5,-1635.67 -2392.57,-4314.26 -1665,-6295.49 372.12,-1013.24 1445.01,-1998.15 2505.65,-2305.39 1292.27,997.19 2985.59,4391.46 3361.82,6761.16 492.33,3100.83 -726.28,6216.79 -3947.92,5881.93zm-18622.76 -4724.09c17.19,-29.6 34.86,-111.18 39.56,-94.68 4.76,16.69 29.93,-71.97 35.64,-97.41 5.9,-26.13 22.23,-69.57 28.25,-102.71 272.12,-1504.8 -308.35,-4058.27 1961.04,-7398.19 3988.41,-5869.76 12616.6,-6534.84 16240.58,-1777.11 986.77,1295.5 571.07,685.29 -1312.6,2273.74l-307.47 -526.07c-1805.9,-3496.82 -7121.08,-4325.34 -9212.65,-1090.82 -1123.39,1737.31 -1259.6,4044.36 -918.46,6412.46 290.68,2017.67 735.44,2643.03 1589.28,4201.04 543.78,992.22 84.62,827.26 337.4,1384.64 1836.07,-694.83 -2352.22,-2932.55 -1396.48,-9274.52 624.05,-4140.91 3982.54,-5110.47 7058.96,-3529.56 950.04,488.19 2823.99,1990.69 2198.47,3389.85 -654.36,1463.69 -83.74,789.17 -1440.54,1521.45 -1200.45,647.94 -2477.45,1792.25 -2568.87,3324.9 -39.92,669.46 123.33,775.81 181.2,1285.35 58.18,512.06 -200.6,510.04 -476.66,893.88 -718.65,999.28 -687.29,3229.53 -435.91,4444.27 119.24,576.3 6.85,388.09 343.25,532.79 163.84,-209.2 58.85,39.97 134.79,-284.55 41.06,-175.37 34.71,-158.66 39.3,-341.4 4.9,-193.18 -37.61,-534.7 -50.05,-746.37 -72.11,-1227.29 -196.01,-3007.75 737.89,-3706.69 844.88,423.28 2593.86,2280.56 5010.4,1574.49 182.19,-53.23 562.13,-274.56 794.62,-100.29 470.93,353.03 456.21,1619.09 -508.52,2358.1 -336.79,257.97 -502.53,239.95 -566.94,542.88 2789.82,271.26 4221.23,-262.32 5151.53,-2240.12 1465.48,-3115.62 -285.76,-7419.42 -2222.22,-10150.73 -153.21,-216.17 -271.69,-358.87 -411.3,-570.86l-2116.96 -2689.34c-3842.14,-3816.73 -10379.67,-2952.04 -13981.3,-22.85 -2955.13,2403.44 -4542.99,6114.67 -4314.21,9970.18 38.14,643.04 -20.11,522.48 358.99,634.25z"/>
   <path class="fil0" d="M22809.3 23718.87c3221.64,334.86 4440.25,-2781.09 3947.92,-5881.93 -376.23,-2369.7 -2069.55,-5763.98 -3361.82,-6761.16 -1060.64,307.23 -2133.53,1292.15 -2505.65,2305.39 -727.57,1981.22 550.51,4659.82 1665,6295.49 1133.26,1663.29 1598.53,2268.18 254.55,4042.22z"/>
   <path class="fil0" d="M142438.22 19633.91c5774.58,-1062.4 6972.22,5159.02 2288.12,6029.13 -5854.25,1087.42 -6726.35,-5212.54 -2288.12,-6029.13zm-2377.47 -2332.04c266.72,-588.53 200.6,-1051.97 571.57,-1651.6 925.86,-1496.48 3123.11,-1873.04 4721.5,-1299.33 2399.35,861.19 2339.31,3217 2227.12,6143.7 -633.89,-643.78 -1102.39,-1116.02 -2111.59,-1458.39 -2856.61,-969.04 -6707.71,100.48 -6706.24,3620.31 1.52,3595.18 4036.77,4571.02 6819.48,3609.35 1045.19,-361.18 1370.14,-857.67 2002.41,-1467.69 1.21,671.31 -222.11,1507.89 424.9,1555.92 694.14,51.52 488.07,-735.91 481.65,-1356.96 -12.74,-1229.38 -1.14,-2465.02 -1.14,-3695.07 0,-2390.62 332.27,-4774.4 -932.44,-6447.13 -977.67,-1293.1 -3323.16,-2091.5 -5564.88,-1296.17 -1409.65,500.1 -2351.61,1532.6 -2645.14,2915.26 -164.36,774.1 -74.51,895.19 712.8,827.78z"/>
   <path class="fil0" d="M126187.87 26274.67c1069.39,308.78 769.22,-419.86 769.22,-2756.15 -0.05,-3557.02 -522.67,-7171.18 2144.4,-8804.75 1988.05,-1217.68 4365.31,-568.77 5228.33,1054.34 1013.52,1906.07 143.63,9827.33 543.47,10416.43 163.2,240.45 561.35,193.49 700.8,61.75 316.2,-298.86 155.57,-8964.74 -5.83,-9730.32 -759.55,-3603.01 -4840.21,-3900.49 -6983.68,-2445.9 -494.54,335.64 -1399.93,1327.13 -1567.19,1886.86 -143.63,-737.22 -70.8,-5064.16 -56.68,-6354.78 11.84,-1082.4 222.5,-1261.36 -813.61,-1172.84 -210.01,671.5 -86.02,13781.79 -94.79,16815.65l135.57 1029.74z"/>
   <path class="fil0" d="M122863.16 17236.46c-45.39,-1243.53 -1620.59,-2612.4 -2429.12,-3088.85 -3596.8,-2119.43 -9197.22,-477.14 -10035.92,4643.84 -1171.39,7152.44 7677.63,10354.18 11675.43,5514.95 246.94,-298.91 1218.26,-1545.27 540.47,-1737.02 -747.28,-211.42 -1028.19,951.01 -1336.02,1310.96 -2855.92,3339.69 -9031.62,2119.15 -9947.9,-2724.67 -658.57,-3481.68 1344.12,-5952.71 3880.95,-6780.02 1601.26,-522.17 3359.14,-260.51 4671.28,450.72 2396.02,1298.74 1295.74,2572.25 2980.81,2410.1z"/>
   <path class="fil0" d="M92351.77 10797.1c654.5,-0.74 1316.71,-13.12 1970.05,-1.81 908.69,15.74 1040.24,175.78 1543.96,-383.46 587.72,-652.44 1087.2,-1444.36 1779.25,-2023.12 717.77,575.4 1239.87,1447.1 1837.59,2089.33 567.51,609.78 2586.42,377.42 3539.62,302.26l-2563.95 -3125.51c-293.23,-346.39 -423.66,-449.32 -682.11,-799.01 -694.85,-940.43 -1775.25,-736.46 -3756.67,-603.2 -508.95,942.03 -3439.95,3883.68 -3667.75,4544.51z"/>
   <path class="fil0" d="M157734.28 14278.19l0 -661.66c-718.15,-277.47 -2029.8,-72.71 -2933.12,-107.68l-49.26 -4018.58c-481.91,-90.85 -408.99,-104.45 -782.82,44.65 -314.77,1073.22 17.43,2729.52 -113.01,3978.09l-2858.15 71.54c-159.56,1000.59 114.22,805.34 1067.85,790.72 601.89,-9.25 1224.06,-41.54 1818.24,42.2 60.25,1873.69 -152.76,10951.81 90.16,11877.7 786.91,90.68 822.62,139.68 833.23,-667.58 6.92,-526.23 -13.58,-1084.11 -13.58,-1616.53l6.9 -9596.51c928.85,-108.92 2165.3,129.65 2933.57,-136.35z"/>
   <path class="fil0" d="M22362.81 20513.59c-815.54,-1631.48 -2286.7,-2896.27 -2291.1,-6125.42 -1255.65,270.83 -3607.4,2100.22 -2907.42,4275.67 494.35,1536.31 3331.39,2668.87 5198.51,1849.74z"/>
   <path class="fil1" d="M15657.64 11697.66c332.41,-487.74 819.44,-991.86 1762.87,-800.25 639.74,129.96 1307.63,651.82 1508.16,1157.77 -361.54,429.44 -840.86,1066.35 -1801.36,985.18 -783.63,-66.26 -1292.55,-659.83 -1469.66,-1342.7zm-443.94 -738.77c-192.89,1375.32 -403.12,973.43 225.87,1673.83 1750.17,1948.79 3422.33,784.04 4041.29,-688.77 -519.98,-927.78 -1977.09,-2050.86 -3297.51,-1423.99 -247.15,117.31 -370.5,237.74 -557.26,332.44 -173.97,88.18 -372.69,96.29 -412.39,106.49z"/>
   <path class="fil0" d="M15657.64 11697.66c177.11,682.87 686.03,1276.43 1469.66,1342.7 960.5,81.17 1439.82,-555.74 1801.36,-985.18 -200.53,-505.95 -868.42,-1027.81 -1508.16,-1157.77 -943.43,-191.61 -1430.46,312.51 -1762.87,800.25z"/>
  </g>
 </g>
</svg>
