<?xml version="1.0" encoding="UTF-8"?>
<!DOCTYPE svg PUBLIC "-//W3C//DTD SVG 1.1//EN" "http://www.w3.org/Graphics/SVG/1.1/DTD/svg11.dtd">
<!-- Creator: CorelDRAW 2020 (64 Bit) -->
<svg xmlns="http://www.w3.org/2000/svg" xml:space="preserve" width="2033.72mm" height="724.606mm" version="1.1" style="shape-rendering:geometricPrecision; text-rendering:geometricPrecision; image-rendering:optimizeQuality; fill-rule:evenodd; clip-rule:evenodd"
viewBox="0 0 209668.54 74704.17"
 xmlns:xlink="http://www.w3.org/1999/xlink"
 xmlns:xodm="http://www.corel.com/coreldraw/odm/2003">
 <defs>
  <style type="text/css">
   <![CDATA[
    .fil0 {fill:#1B8ACC}
    .fil1 {fill:#FEFEFE;fill-rule:nonzero}
    .fil2 {fill:#373435;fill-rule:nonzero}
   ]]>
  </style>
 </defs>
 <g id="Camada_x0020_1">
  <metadata id="CorelCorpID_0Corel-Layer"/>
  <path class="fil0" d="M-0 5964.7l0 53718.62 64987.99 0c164.41,0 354.36,741.66 400.77,877.5 293.23,858.4 789.44,2008.92 1043.43,2811.22 294.75,931.07 1006.78,2772.78 1381.94,3780.86 470.51,1264.32 926.26,2525.72 1390.27,3773.4 234.39,630.24 458.2,1267.78 690.06,1891.25l695.24 1886.61 4505.72 0c37.69,-144.91 108.6,-335.12 157.21,-477.44 55.4,-162.19 112.62,-302.04 172.71,-463.55l3693.87 -10292.73c97.89,-263.18 1314.97,-3578.06 1334.38,-3787.12l10026.25 0 0 -327.33 690.06 36.37c721.72,0 1536.25,-336.21 1991.44,-579.76 556.79,-297.9 945.15,-713.56 1304.79,-1194.99 612.96,-820.53 1290.68,-2253.79 1290.68,-3608.03l0 -49463.31c0,-768.7 -725.69,-2206.62 -1124.03,-2848.11 -447.82,-721.19 -1344.96,-1698.16 -2407.47,-1698.16l-88653.21 0c-719.27,0 -1461.38,759.49 -1802.41,1221.93 -940.99,1276.05 -1769.69,3060.04 -1769.69,4742.77z"/>
  <polygon class="fil1" points="3755.06,40393.42 3755.06,14989.09 20578.73,14989.09 20578.73,19419.14 9128.15,19419.14 9128.15,25473.33 19461.03,25473.33 19461.03,29897.55 9128.15,29897.55 9128.15,40393.42 "/>
  <path id="1" class="fil1" d="M29281.63 40754.34c-1816.26,0 -3323.99,-477.35 -4523.19,-1426.22 -1199.2,-954.7 -1798.79,-2369.29 -1798.79,-4255.4 0,-1420.4 331.82,-2538.1 1001.27,-3347.27 669.46,-814.99 1548.48,-1408.76 2637.07,-1781.33 1088.58,-378.38 2258.68,-622.89 3516.09,-739.31 1653.25,-163 2834.99,-337.63 3551.02,-518.09 710.2,-186.28 1065.3,-582.14 1065.3,-1193.38l0 -75.67c0,-785.88 -244.5,-1391.31 -739.31,-1822.08 -489,-430.78 -1187.56,-646.17 -2089.87,-646.17 -948.88,0 -1705.65,209.56 -2270.31,622.88 -558.85,413.32 -931.41,937.24 -1117.7,1571.77l-4884.11 -395.85c360.92,-1734.76 1269.05,-3114.42 2706.92,-4127.33 1443.7,-1018.74 3306.53,-1525.2 5588.49,-1525.2 1414.58,0 2736.03,221.21 3970.16,669.46 1234.12,442.42 2229.57,1140.98 2986.35,2089.86 750.94,943.06 1129.34,2177.19 1129.34,3690.73l0 12847.7 -5006.36 0 0 -2642.88 -151.36 0c-459.88,884.83 -1152.63,1606.68 -2078.22,2165.54 -919.77,558.84 -2084.04,838.27 -3492.8,838.27zm1513.55 -3649.98c1158.44,0 2113.14,-337.63 2852.46,-1007.09 745.13,-675.28 1117.7,-1513.55 1117.7,-2514.82l0 -2020.01c-203.75,139.72 -523.93,261.96 -960.53,372.57 -430.78,104.78 -896.48,197.92 -1391.3,279.42 -489,75.67 -931.41,145.53 -1315.62,203.75 -931.41,133.89 -1676.55,390.02 -2241.22,780.06 -564.67,390.02 -849.92,954.69 -849.92,1699.83 0,727.66 261.96,1280.69 785.88,1647.44 529.74,372.57 1193.37,558.84 2002.54,558.84z"/>
  <polygon id="2" class="fil1" points="49406,14989.09 49406,40393.42 44120.23,40393.42 44120.23,14989.09 "/>
  <path id="3" class="fil1" d="M59051.97 40754.34c-1816.26,0 -3323.99,-477.35 -4523.19,-1426.22 -1199.2,-954.7 -1798.79,-2369.29 -1798.79,-4255.4 0,-1420.4 331.82,-2538.1 1001.27,-3347.27 669.46,-814.99 1548.48,-1408.76 2637.07,-1781.33 1088.58,-378.38 2258.68,-622.89 3516.09,-739.31 1653.25,-163 2834.99,-337.63 3551.02,-518.09 710.2,-186.28 1065.3,-582.14 1065.3,-1193.38l0 -75.67c0,-785.88 -244.5,-1391.31 -739.31,-1822.08 -489,-430.78 -1187.56,-646.17 -2089.87,-646.17 -948.88,0 -1705.65,209.56 -2270.31,622.88 -558.85,413.32 -931.41,937.24 -1117.7,1571.77l-4884.11 -395.85c360.92,-1734.76 1269.05,-3114.42 2706.92,-4127.33 1443.7,-1018.74 3306.53,-1525.2 5588.49,-1525.2 1414.58,0 2736.03,221.21 3970.16,669.46 1234.12,442.42 2229.57,1140.98 2986.35,2089.86 750.94,943.06 1129.34,2177.19 1129.34,3690.73l0 12847.7 -5006.36 0 0 -2642.88 -151.36 0c-459.88,884.83 -1152.63,1606.68 -2078.22,2165.54 -919.77,558.84 -2084.04,838.27 -3492.8,838.27zm1513.55 -3649.98c1158.44,0 2113.14,-337.63 2852.46,-1007.09 745.13,-675.28 1117.7,-1513.55 1117.7,-2514.82l0 -2020.01c-203.75,139.72 -523.93,261.96 -960.53,372.57 -430.78,104.78 -896.48,197.92 -1391.3,279.42 -489,75.67 -931.41,145.53 -1315.62,203.75 -931.41,133.89 -1676.55,390.02 -2241.22,780.06 -564.67,390.02 -849.92,954.69 -849.92,1699.83 0,727.66 261.96,1280.69 785.88,1647.44 529.74,372.57 1193.37,558.84 2002.54,558.84z"/>
  <path id="4" class="fil1" d="M82576 40765.99c-1955.96,0 -3638.33,-401.67 -5052.92,-1199.2 -1408.77,-797.53 -2497.36,-1926.87 -3259.96,-3399.66 -762.59,-1466.98 -1140.98,-3201.74 -1140.98,-5210.11 0,-1961.79 378.38,-3684.91 1140.98,-5163.53 762.59,-1478.62 1833.72,-2631.24 3219.2,-3457.87 1385.48,-826.64 3009.63,-1239.95 4878.28,-1239.95 1682.37,0 3195.91,355.1 4546.46,1065.3 1356.38,710.2 2427.51,1781.33 3219.2,3219.2 797.52,1432.05 1193.38,3230.84 1193.38,5390.56l0 1449.51 -12975.77 0 0 11.65c0,1420.41 390.03,2543.92 1164.27,3358.91 780.07,820.81 1827.91,1228.3 3155.17,1228.3 884.84,0 1647.44,-186.27 2293.6,-558.84 646.18,-366.74 1100.23,-919.77 1362.2,-1647.44l4889.92 320.18c-372.56,1769.68 -1315.62,3184.27 -2829.17,4243.75 -1513.55,1059.48 -3446.23,1589.23 -5803.88,1589.23zm-4232.11 -11823.15l7998.52 0c-5.81,-1129.34 -366.74,-2066.58 -1088.58,-2800.06 -721.85,-739.3 -1653.26,-1106.05 -2805.89,-1106.05 -1170.09,0 -2136.43,384.2 -2887.39,1140.98 -750.95,762.59 -1158.44,1682.37 -1216.66,2765.14z"/>
  <path class="fil2" d="M132436.74 20926.01l-4370.98 0c-67.24,-1697.96 -504.34,-3118.52 -1311.29,-4278.51 -806.95,-1160 -1866.07,-2034.19 -3168.95,-2631 -1311.29,-596.8 -2748.67,-899.41 -4328.95,-899.41 -2269.54,0 -4413.01,580 -6447.19,1731.59 -2025.78,1151.58 -3765.77,2841.13 -5211.55,5068.65 -1445.79,2227.52 -2429.26,4950.97 -2950.41,8170.36 -529.56,3126.93 -453.91,5766.33 226.96,7901.38 680.86,2135.06 1807.23,3757.37 3387.51,4850.1 1571.87,1101.15 3446.34,1647.53 5623.43,1647.53 1672.74,0 3295.04,-294.21 4875.32,-891.01 1571.87,-596.8 2975.63,-1479.41 4202.86,-2631 1235.65,-1159.99 2168.68,-2588.96 2815.92,-4286.92l4438.22 0c-882.6,2513.31 -2160.27,4656.78 -3824.61,6438.79 -1664.34,1790.42 -3589.25,3152.15 -5766.33,4102 -2177.07,949.85 -4471.84,1428.98 -6884.29,1428.98 -3177.37,0 -5875.6,-781.74 -8103.12,-2336.79 -2227.51,-1563.47 -3816.19,-3774.17 -4766.04,-6632.12 -949.85,-2857.94 -1101.15,-6245.45 -453.91,-10162.52 638.84,-3816.2 1874.48,-7119.65 3706.92,-9893.53 1824.05,-2773.89 4059.97,-4917.35 6716.18,-6413.57 2647.8,-1496.23 5522.56,-2244.33 8632.69,-2244.33 2479.68,0 4690.39,470.73 6623.71,1420.57 1933.31,949.85 3463.16,2319.98 4589.52,4102 1117.97,1782.01 1706.37,3933.88 1748.4,6438.78z"/>
  <path id="1" class="fil2" d="M141825.93 29592.31l-2723.45 16550.88 -4219.67 0 6085.74 -36682.59 4228.07 0 -2219.11 13474.38 353.04 0c857.38,-1437.38 2008.97,-2572.16 3446.34,-3404.32 1445.78,-840.58 3253.02,-1252.46 5438.51,-1252.46 2790.7,0 4917.35,840.58 6354.73,2530.13 1445.78,1689.55 1882.88,4312.14 1311.29,7850.95l-2933.61 17483.91 -4228.07 0 2866.35 -17189.71c353.04,-2185.49 67.25,-3883.44 -874.19,-5077.06 -933.03,-1202.01 -2387.23,-1807.23 -4362.57,-1807.23 -2076.22,0 -3908.66,655.64 -5497.34,1966.94 -1588.68,1302.88 -2597.37,3160.55 -3026.06,5556.18z"/>
  <path id="2" class="fil2" d="M172700.16 46790.43c-1739.99,0 -3269.82,-336.23 -4581.12,-1000.28 -1319.7,-655.64 -2286.37,-1622.3 -2925.19,-2883.16 -630.43,-1252.46 -806.96,-2782.3 -512.75,-4572.71 268.98,-1571.88 798.54,-2857.95 1588.67,-3841.42 790.14,-983.47 1748.4,-1765.2 2874.76,-2328.39 1126.37,-563.18 2345.2,-991.87 3656.5,-1269.26 1302.89,-285.79 2605.78,-504.35 3908.66,-655.65 1697.96,-218.54 3076.5,-386.66 4135.62,-504.34 1067.53,-117.68 1866.07,-311.01 2404.04,-588.4 537.97,-277.39 865.79,-748.11 983.47,-1412.16l0 -142.9c285.8,-1756.79 58.85,-3126.93 -697.67,-4110.4 -748.11,-991.88 -2093.02,-1479.41 -4026.34,-1479.41 -2008.97,0 -3681.7,437.1 -5035.03,1328.11 -1344.91,882.6 -2345.19,1824.04 -2992.43,2824.32l-3723.75 -1428.98c975.06,-1672.74 2151.87,-2975.63 3513.59,-3917.06 1361.73,-933.04 2782.3,-1597.09 4278.52,-1966.94 1487.81,-378.26 2933.6,-563.18 4312.14,-563.18 882.6,0 1882.88,100.87 2992.44,311.01 1109.55,210.15 2151.87,638.84 3126.93,1277.67 975.06,647.24 1706.36,1622.3 2202.29,2925.19 495.94,1294.49 563.18,3042.88 210.15,5228.36l-3009.26 18122.74 -4228.07 0 638.83 -3723.74 -210.14 0c-386.66,596.8 -966.65,1235.64 -1748.39,1916.51 -781.73,680.86 -1765.2,1260.86 -2950.41,1731.57 -1193.61,479.13 -2588.96,722.89 -4186.05,722.89zm1218.84 -3799.39c1672.74,0 3135.33,-327.83 4396.19,-983.47 1260.86,-655.65 2277.95,-1504.63 3042.87,-2546.93 773.34,-1033.91 1252.46,-2126.65 1445.79,-3278.24l638.84 -3866.64c-210.15,218.55 -638.84,411.88 -1269.27,580 -630.42,176.52 -1344.91,327.83 -2135.05,453.9 -798.54,126.09 -1571.87,226.96 -2311.57,319.42 -748.11,92.47 -1344.91,168.11 -1798.82,226.96 -1126.37,142.89 -2193.9,369.85 -3202.58,689.27 -1008.68,311.01 -1857.66,781.73 -2538.53,1412.16 -689.27,630.42 -1117.96,1479.4 -1286.07,2555.33 -243.77,1462.6 100.87,2572.15 1059.12,3320.27 958.26,748.11 2277.95,1117.96 3959.1,1117.96z"/>
  <path id="3" class="fil2" d="M209668.54 18631.25l-571.59 3580.84 -5926.04 0 -2673.02 16046.53c-184.92,1202.02 -151.3,2093.02 100.87,2681.42 260.58,588.4 647.24,983.48 1185.21,1185.21 529.56,193.34 1101.15,294.21 1723.17,294.21 470.72,0 848.98,-25.22 1151.59,-84.05 294.2,-50.43 537.97,-100.87 714.49,-134.5l285.79 3799.39c-319.42,109.28 -756.52,218.55 -1302.89,327.83 -537.97,117.68 -1202.02,176.52 -1992.15,176.52 -1193.62,0 -2319.99,-260.58 -3370.7,-773.33 -1050.72,-512.75 -1849.26,-1294.48 -2412.44,-2345.19 -563.18,-1050.72 -714.49,-2378.82 -453.9,-3975.91l2832.73 -17198.11 -4118.81 0 571.6 -3580.84 4135.62 0 1092.74 -6590.09 4228.08 0 -1092.74 6590.09 5892.41 0z"/>
 </g>
</svg>
