<?xml version="1.0" encoding="UTF-8"?>
<!DOCTYPE svg PUBLIC "-//W3C//DTD SVG 1.1//EN" "http://www.w3.org/Graphics/SVG/1.1/DTD/svg11.dtd">
<!-- Creator: CorelDRAW 2021 (64 Bit Versão de avaliação) -->
<svg xmlns="http://www.w3.org/2000/svg" xml:space="preserve" width="133.372mm" height="133.13mm" version="1.1" style="shape-rendering:geometricPrecision; text-rendering:geometricPrecision; image-rendering:optimizeQuality; fill-rule:evenodd; clip-rule:evenodd"
viewBox="0 0 2176.44 2172.49"
 xmlns:xlink="http://www.w3.org/1999/xlink"
 xmlns:xodm="http://www.corel.com/coreldraw/odm/2003">
 <defs>
  <style type="text/css">
   <![CDATA[
    .fil0 {fill:#47A6F6}
    .fil1 {fill:#FDFDFD}
   ]]>
  </style>
 </defs>
 <g id="Camada_x0020_1">
  <metadata id="CorelCorpID_0Corel-Layer"/>
  <g id="_2101188826448">
   <path class="fil0" d="M1079.85 777.85c2.82,-0.72 16.92,-1.3 29.27,-7.56 13.26,-6.72 22.01,-15.27 39.55,-23.59 93.72,-44.5 197.15,35.22 234.05,101.07 -43.93,104.54 -162.62,187.21 -286.85,48.89 -44.64,-49.71 -29.72,-21.19 -16.03,-118.81zm-782.7 570.38c-26.91,-7.93 -22.77,0.62 -25.48,-45.02 -16.24,-273.66 96.47,-537.08 306.22,-707.67 255.64,-207.91 719.67,-269.29 992.38,1.62l150.26 190.89c9.91,15.05 18.32,25.17 29.19,40.52 137.45,193.86 261.75,499.34 157.73,720.49 -66.03,140.38 -167.63,178.26 -365.65,159 4.57,-21.5 16.34,-20.22 40.24,-38.53 68.47,-52.45 69.52,-142.32 36.09,-167.37 -16.5,-12.37 -43.47,3.34 -56.4,7.12 -171.52,50.12 -295.66,-81.71 -355.63,-111.76 -66.29,49.61 -57.49,175.99 -52.37,263.1 0.88,15.02 3.9,39.27 3.55,52.98 -0.33,12.97 0.12,11.79 -2.79,24.23 -5.39,23.04 2.06,5.35 -9.57,20.2 -23.88,-10.27 -15.9,3.09 -24.36,-37.82 -17.84,-86.22 -20.07,-244.52 30.94,-315.45 19.59,-27.25 37.96,-27.1 33.83,-63.45 -4.11,-36.17 -15.7,-43.71 -12.86,-91.23 6.49,-108.79 97.13,-190.01 182.33,-236 96.3,-51.98 55.8,-4.1 102.25,-107.99 44.4,-99.31 -88.61,-205.96 -156.04,-240.61 -218.36,-112.21 -456.74,-43.39 -501.04,250.52 -67.84,450.15 229.44,608.98 99.12,658.29 -17.94,-39.56 14.65,-27.85 -23.95,-98.28 -60.61,-110.59 -92.17,-154.97 -112.8,-298.18 -24.22,-168.09 -14.54,-331.84 65.19,-455.15 148.46,-229.58 525.72,-170.77 653.9,77.43l21.82 37.34c133.7,-112.75 163.21,-69.44 93.17,-161.39 -257.23,-337.7 -869.64,-290.49 -1152.74,126.14 -161.08,237.07 -119.88,418.31 -139.19,525.12 -0.43,2.35 -1.59,5.44 -2,7.29 -0.41,1.8 -2.19,8.1 -2.53,6.91 -0.33,-1.17 -1.59,4.62 -2.81,6.72zm-297.16 -368.68l0 192.38c15.17,33.88 20.6,125.85 31.16,168.51 36.43,147.18 104.7,288.26 193.32,401.59 319.86,409.05 689.62,429.51 1165.17,429.4 115.49,-0.02 719.92,5.15 783.35,-7.16 4.63,-265.83 3.34,-534.76 3.08,-800.84 -0.26,-263 3.11,-483.2 -88.99,-706.54 -140.28,-340.19 -421.56,-551.88 -767.58,-630.06 -50.76,-11.47 -120.83,-8.81 -165.34,-26.83l-173.23 0c-65.26,33.49 -186.36,14.22 -382.51,108.78 -551.64,265.92 -571.14,816.43 -598.42,870.77z"/>
   <path class="fil1" d="M1587.29 1456.03c-132.53,58.14 -333.89,-22.25 -368.98,-131.29 -49.68,-154.41 117.24,-284.26 206.37,-303.48 0.31,229.2 104.73,318.97 162.62,434.77zm31.69 227.51c95.39,-125.92 62.37,-168.85 -18.07,-286.91 -79.11,-116.1 -169.82,-306.22 -118.18,-446.85 26.41,-71.92 102.57,-141.83 177.85,-163.63 91.72,70.78 211.91,311.7 238.62,479.9 34.94,220.09 -51.55,441.26 -280.22,417.49zm-1321.82 -335.31c1.22,-2.1 2.48,-7.89 2.81,-6.72 0.34,1.18 2.12,-5.11 2.53,-6.91 0.42,-1.86 1.58,-4.94 2,-7.29 19.31,-106.81 -21.89,-288.05 139.19,-525.12 283.09,-416.63 895.51,-463.83 1152.74,-126.14 70.04,91.95 40.53,48.64 -93.17,161.39l-21.82 -37.34c-128.18,-248.2 -505.45,-307.01 -653.9,-77.43 -79.74,123.31 -89.41,287.07 -65.19,455.15 20.63,143.21 52.2,187.6 112.8,298.18 38.6,70.43 6.01,58.72 23.95,98.28 130.32,-49.32 -166.96,-208.15 -99.12,-658.29 44.29,-293.92 282.68,-362.74 501.04,-250.52 67.43,34.65 200.44,141.3 156.04,240.61 -46.44,103.89 -5.94,56.01 -102.25,107.99 -85.21,45.99 -175.85,127.21 -182.33,236 -2.83,47.52 8.75,55.07 12.86,91.23 4.13,36.35 -14.24,36.2 -33.83,63.45 -51.01,70.93 -48.78,229.23 -30.94,315.45 8.46,40.91 0.49,27.55 24.36,37.82 11.63,-14.85 4.18,2.84 9.57,-20.2 2.91,-12.45 2.46,-11.26 2.79,-24.23 0.35,-13.71 -2.67,-37.95 -3.55,-52.98 -5.12,-87.11 -13.91,-213.49 52.37,-263.1 59.97,30.04 184.11,161.87 355.63,111.76 12.93,-3.78 39.9,-19.49 56.4,-7.12 33.43,25.06 32.38,114.92 -36.09,167.37 -23.9,18.31 -35.67,17.03 -40.24,38.53 198.02,19.25 299.62,-18.62 365.65,-159 104.02,-221.14 -20.28,-526.62 -157.73,-720.49 -10.87,-15.34 -19.28,-25.47 -29.19,-40.52l-150.26 -190.89c-272.71,-270.91 -736.74,-209.53 -992.38,-1.62 -209.75,170.59 -322.46,434.01 -306.22,707.67 2.71,45.64 -1.43,37.09 25.48,45.02z"/>
   <path class="fil0" d="M1618.98 1683.54c228.67,23.77 315.16,-197.4 280.22,-417.49 -26.71,-168.2 -146.9,-409.12 -238.62,-479.9 -75.28,21.81 -151.44,91.71 -177.85,163.63 -51.64,140.62 39.07,330.75 118.18,446.85 80.44,118.06 113.46,160.99 18.07,286.91z"/>
   <path class="fil0" d="M1587.29 1456.03c-57.88,-115.8 -162.31,-205.57 -162.62,-434.77 -89.13,19.22 -256.05,149.07 -206.37,303.48 35.09,109.05 236.46,189.43 368.98,131.29z"/>
   <path class="fil1" d="M1111.36 830.29c23.59,-34.62 58.16,-70.4 125.13,-56.8 45.41,9.22 92.81,46.26 107.05,82.18 -25.66,30.48 -59.68,75.69 -127.86,69.93 -55.62,-4.7 -91.74,-46.83 -104.31,-95.3zm-31.51 -52.44c-13.69,97.62 -28.61,69.09 16.03,118.81 124.23,138.32 242.91,55.65 286.85,-48.89 -36.91,-65.85 -140.33,-145.57 -234.05,-101.07 -17.54,8.33 -26.3,16.87 -39.55,23.59 -12.35,6.26 -26.45,6.84 -29.27,7.56z"/>
   <path class="fil0" d="M1111.36 830.29c12.57,48.47 48.69,90.6 104.31,95.3 68.18,5.76 102.2,-39.45 127.86,-69.93 -14.23,-35.91 -61.64,-72.95 -107.05,-82.18 -66.96,-13.6 -101.53,22.18 -125.13,56.8z"/>
  </g>
 </g>
</svg>
