<?xml version="1.0" encoding="UTF-8"?>
<!DOCTYPE svg PUBLIC "-//W3C//DTD SVG 1.1//EN" "http://www.w3.org/Graphics/SVG/1.1/DTD/svg11.dtd">
<!-- Creator: CorelDRAW 2020 (64 Bit) -->
<svg xmlns="http://www.w3.org/2000/svg" xml:space="preserve" width="928.809mm" height="724.606mm" version="1.1" style="shape-rendering:geometricPrecision; text-rendering:geometricPrecision; image-rendering:optimizeQuality; fill-rule:evenodd; clip-rule:evenodd"
viewBox="0 0 43732.68 34117.82"
 xmlns:xlink="http://www.w3.org/1999/xlink"
 xmlns:xodm="http://www.corel.com/coreldraw/odm/2003">
 <defs>
  <style type="text/css">
   <![CDATA[
    .fil0 {fill:#1B8ACC}
    .fil1 {fill:#FEFEFE;fill-rule:nonzero}
   ]]>
  </style>
 </defs>
 <g id="Camada_x0020_1">
  <metadata id="CorelCorpID_0Corel-Layer"/>
  <path class="fil0" d="M-0 2724.11l0 24533.6 29680.38 0c75.09,0 161.84,338.72 183.03,400.76 133.92,392.04 360.54,917.49 476.54,1283.9 134.62,425.23 459.8,1266.34 631.14,1726.74 214.89,577.42 423.03,1153.51 634.95,1723.33 107.05,287.83 209.26,579 315.16,863.74l317.52 861.63 2057.79 0c17.21,-66.18 49.6,-153.05 71.8,-218.05 25.3,-74.07 51.44,-137.94 78.88,-211.71l1687.01 -4700.75c44.71,-120.2 600.56,-1634.12 609.42,-1729.6l4579.05 0 0 -149.49 315.16 16.61c329.61,0 701.61,-153.55 909.5,-264.78 254.29,-136.05 431.65,-325.89 595.9,-545.76 279.94,-374.74 589.46,-1029.32 589.46,-1647.81l0 -22590.18c0,-351.07 -331.43,-1007.78 -513.35,-1300.75 -204.52,-329.37 -614.25,-775.56 -1099.51,-775.56l-40488.43 0c-328.5,0 -667.42,346.86 -823.17,558.06 -429.76,582.78 -808.23,1397.54 -808.23,2166.05z"/>
  <polygon class="fil1" points="1714.96,18447.91 1714.96,6845.6 9398.42,6845.6 9398.42,8868.83 4168.88,8868.83 4168.88,11633.81 8887.96,11633.81 8887.96,13654.38 4168.88,13654.38 4168.88,18447.91 "/>
  <path id="1" class="fil1" d="M13373.09 18612.74c-829.5,0 -1518.09,-218.01 -2065.76,-651.36 -547.68,-436.02 -821.52,-1082.07 -821.52,-1943.47 0,-648.7 151.54,-1159.16 457.29,-1528.72 305.74,-372.21 707.2,-643.39 1204.36,-813.54 497.16,-172.81 1031.55,-284.48 1605.82,-337.65 755.05,-74.44 1294.76,-154.2 1621.77,-236.61 324.35,-85.08 486.53,-265.87 486.53,-545.02l0 -34.56c0,-358.92 -111.67,-635.42 -337.65,-832.16 -223.33,-196.74 -542.36,-295.11 -954.45,-295.11 -433.36,0 -778.98,95.71 -1036.87,284.47 -255.23,188.77 -425.38,428.04 -510.46,717.83l-2230.6 -180.79c164.83,-792.27 579.58,-1422.37 1236.26,-1884.97 659.35,-465.26 1510.11,-696.57 2552.3,-696.57 646.05,0 1249.56,101.03 1813.19,305.74 563.63,202.05 1018.26,521.09 1363.88,954.45 342.96,430.7 515.77,994.33 515.77,1685.58l0 5867.62 -2286.43 0 0 -1207.02 -69.13 0c-210.03,404.11 -526.41,733.78 -949.13,989.01 -420.07,255.23 -951.79,382.84 -1595.18,382.84zm691.25 -1666.97c529.07,0 965.09,-154.2 1302.73,-459.94 340.3,-308.4 510.46,-691.25 510.46,-1148.53l0 -922.55c-93.05,63.81 -239.28,119.64 -438.68,170.15 -196.74,47.85 -409.43,90.39 -635.41,127.61 -223.33,34.56 -425.38,66.46 -600.85,93.05 -425.38,61.15 -765.69,178.13 -1023.58,356.26 -257.89,178.13 -388.16,436.01 -388.16,776.32 0,332.33 119.64,584.9 358.92,752.39 241.94,170.15 545.02,255.23 914.57,255.23z"/>
  <polygon id="2" class="fil1" points="22564,6845.6 22564,18447.91 20149.96,18447.91 20149.96,6845.6 "/>
  <path id="3" class="fil1" d="M26969.37 18612.74c-829.5,0 -1518.09,-218.01 -2065.76,-651.36 -547.68,-436.02 -821.52,-1082.07 -821.52,-1943.47 0,-648.7 151.54,-1159.16 457.29,-1528.72 305.74,-372.21 707.2,-643.39 1204.36,-813.54 497.16,-172.81 1031.55,-284.48 1605.82,-337.65 755.05,-74.44 1294.76,-154.2 1621.77,-236.61 324.35,-85.08 486.53,-265.87 486.53,-545.02l0 -34.56c0,-358.92 -111.67,-635.42 -337.65,-832.16 -223.33,-196.74 -542.36,-295.11 -954.45,-295.11 -433.36,0 -778.98,95.71 -1036.87,284.47 -255.23,188.77 -425.38,428.04 -510.46,717.83l-2230.6 -180.79c164.83,-792.27 579.58,-1422.37 1236.26,-1884.97 659.35,-465.26 1510.11,-696.57 2552.3,-696.57 646.05,0 1249.56,101.03 1813.19,305.74 563.63,202.05 1018.26,521.09 1363.88,954.45 342.96,430.7 515.77,994.33 515.77,1685.58l0 5867.62 -2286.43 0 0 -1207.02 -69.13 0c-210.03,404.11 -526.41,733.78 -949.13,989.01 -420.07,255.23 -951.79,382.84 -1595.18,382.84zm691.25 -1666.97c529.07,0 965.09,-154.2 1302.73,-459.94 340.3,-308.4 510.46,-691.25 510.46,-1148.53l0 -922.55c-93.05,63.81 -239.28,119.64 -438.68,170.15 -196.74,47.85 -409.43,90.39 -635.41,127.61 -223.33,34.56 -425.38,66.46 -600.85,93.05 -425.38,61.15 -765.69,178.13 -1023.58,356.26 -257.89,178.13 -388.16,436.01 -388.16,776.32 0,332.33 119.64,584.9 358.92,752.39 241.94,170.15 545.02,255.23 914.57,255.23z"/>
  <path id="4" class="fil1" d="M37712.93 18618.06c-893.3,0 -1661.65,-183.45 -2307.7,-547.68 -643.39,-364.24 -1140.56,-880.01 -1488.84,-1552.65 -348.28,-669.98 -521.09,-1462.25 -521.09,-2379.49 0,-895.96 172.81,-1682.92 521.09,-2358.21 348.28,-675.29 837.47,-1201.7 1470.23,-1579.23 632.76,-377.53 1374.51,-566.29 2227.94,-566.29 768.35,0 1459.59,162.18 2076.4,486.53 619.46,324.35 1108.66,813.54 1470.23,1470.23 364.23,654.02 545.02,1475.54 545.02,2461.9l0 662 -5926.11 0 0 5.32c0,648.71 178.13,1161.82 531.73,1534.03 356.26,374.87 834.82,560.97 1440.98,560.97 404.11,0 752.39,-85.07 1047.5,-255.23 295.11,-167.49 502.48,-420.07 622.13,-752.39l2233.25 146.23c-170.15,808.22 -600.85,1454.28 -1292.1,1938.15 -691.25,483.87 -1573.91,725.81 -2650.66,725.81zm-1932.83 -5399.7l3652.97 0c-2.66,-515.77 -167.49,-943.82 -497.16,-1278.81 -329.67,-337.64 -755.05,-505.14 -1281.47,-505.14 -534.39,0 -975.72,175.47 -1318.69,521.09 -342.96,348.28 -529.07,768.35 -555.66,1262.85z"/>
 </g>
</svg>
